<?xml version="1.0" standalone="no"?>
<!DOCTYPE svg PUBLIC "-//W3C//DTD SVG 20010904//EN"
 "http://www.w3.org/TR/2001/REC-SVG-20010904/DTD/svg10.dtd">
<svg version="1.0" xmlns="http://www.w3.org/2000/svg"
 width="700.000000pt" height="700.000000pt" viewBox="0 0 700.000000 700.000000"
 preserveAspectRatio="xMidYMid meet">
<metadata>
Created by potrace 1.14, written by Peter Selinger 2001-2017
</metadata>
<g transform="translate(0.000000,700.000000) scale(0.100000,-0.100000)"
fill="#000000" stroke="none">
<path d="M2660 6948 c-47 -28 -105 -62 -130 -76 -67 -38 -1012 -586 -1110
-644 -47 -28 -105 -62 -130 -75 -25 -14 -52 -33 -60 -42 -13 -15 -15 -321 -13
-2642 1 -1443 2 -2627 2 -2630 1 -4 29 -22 64 -39 78 -41 183 -97 222 -120 17
-10 59 -33 95 -52 55 -30 370 -200 620 -335 63 -34 103 -57 220 -120 30 -17
87 -47 125 -68 39 -21 98 -53 132 -71 l61 -34 97 55 c54 30 99 55 101 55 2 0
27 14 55 31 29 17 161 92 293 166 301 170 289 163 361 203 33 18 74 41 90 51
17 9 62 34 100 54 39 21 81 46 94 56 13 11 27 19 31 19 4 0 45 22 92 49 46 26
109 62 139 78 183 102 243 136 323 182 49 28 90 51 92 51 2 0 53 29 115 65 61
36 113 65 114 65 2 0 83 45 182 101 196 111 179 102 518 291 l240 135 1 1757
c0 966 -2 1760 -5 1765 -5 8 -174 108 -551 326 -69 40 -203 118 -299 174 -96
55 -176 101 -179 101 -3 0 -13 6 -21 14 -9 7 -41 27 -71 43 -30 17 -165 95
-300 173 -135 78 -261 151 -280 162 -19 11 -64 37 -100 58 -36 21 -81 47 -100
58 -40 23 -118 67 -244 140 -49 29 -91 52 -93 52 -2 0 -23 13 -46 29 -23 15
-62 39 -87 53 -25 14 -186 107 -358 207 -172 99 -314 181 -315 181 -1 0 -40
-23 -87 -52z m1060 -2760 l125 -74 3 -641 2 -641 -57 -34 c-84 -48 -83 -47
-198 -115 l-105 -61 0 849 0 850 53 -30 c28 -16 108 -62 177 -103z"/>
</g>
</svg>
