<?xml version="1.0" encoding="utf-8"?><svg xmlns="http://www.w3.org/2000/svg" xmlns:xlink="http://www.w3.org/1999/xlink"><symbol viewBox="0 0 511.999 511.999" id="hierarchy" xmlns="http://www.w3.org/2000/svg"><path d="M255.999 0c-60.08 0-108.96 48.88-108.96 108.96 0 36.16 17.88 69.89 47.83 90.23 18.07 12.27 39.21 18.75 61.13 18.75s43.06-6.48 61.13-18.75c29.95-20.34 47.83-54.07 47.83-90.23C364.959 48.88 316.079 0 255.999 0z"/><path d="M349.959 108.96c0 30.19-14.44 58.41-38.79 76.09-.81.59-1.63 1.17-2.46 1.73-15.19 10.31-32.89 15.88-51.3 16.14-.47.02-.94.02-1.41.02s-.94 0-1.41-.02c-18.41-.26-36.11-5.83-51.3-16.14a83.65 83.65 0 0 1-2.46-1.73 93.952 93.952 0 0 1-38.79-76.09c0-51.81 42.15-93.96 93.96-93.96s93.96 42.15 93.96 93.96z"/><path d="M288.88 20.942c27.29 16.459 45.579 46.392 45.579 80.518 0 30.19-14.44 58.41-38.79 76.09-.81.59-1.63 1.17-2.46 1.73-15.19 10.31-32.89 15.88-51.3 16.14-.47.02-.94.02-1.41.02s-.94 0-1.41-.02a93.606 93.606 0 0 1-31.535-5.927c14.197 8.564 30.32 13.191 47.035 13.427.47.02.94.02 1.41.02s.94 0 1.41-.02c18.41-.26 36.11-5.83 51.3-16.14.83-.56 1.65-1.14 2.46-1.73a93.952 93.952 0 0 0 38.79-76.09c0-40.248-25.438-74.66-61.079-88.018z"/><path d="M255.999 41.065c-21.233 0-38.445 17.213-38.445 38.445v18.535c0 21.233 17.213 38.445 38.445 38.445 21.233 0 38.445-17.213 38.445-38.445V79.511c0-21.233-17.212-38.446-38.445-38.446zM311.169 185.05c-.81.59-1.63 1.17-2.46 1.73-15.19 10.31-32.89 15.88-51.3 16.14-.47.02-.94.02-1.41.02s-.94 0-1.41-.02c-18.41-.26-36.11-5.83-51.3-16.14a83.65 83.65 0 0 1-2.46-1.73c4-12.22 13.63-21.87 25.82-25.96l-.01-.02c.45-.15.9-.29 1.35-.42.07-.03.15-.05.22-.07.08-.03.15-.05.23-.07.43-.11.87-.23 1.31-.35.36-.08.72-.17 1.08-.24.16-.04.31-.07.47-.1.03-.01.06-.01.08-.02.26-.06.52-.1.78-.15.27-.05.53-.09.79-.14.13-.02.26-.04.39-.07l1.07-.15.24-.03c.53-.06 1.05-.12 1.59-.16.52-.04 1.04-.08 1.57-.1.11 0 .21-.01.32-.01.49-.021.98-.03 1.47-.03h32.8c.49 0 .98.01 1.47.03.11 0 .21.01.32.01.53.02 1.05.06 1.57.1.54.04 1.06.1 1.59.16l.24.03 1.07.15c.13.03.26.05.39.07.26.05.52.09.79.14.26.05.52.09.78.15.02.01.05.01.08.02.16.03.31.06.47.1.36.07.72.16 1.08.24.44.12.88.24 1.31.35.08.02.15.04.23.07.07.02.15.04.22.07.45.13.9.27 1.35.42l-.01.02c12.19 4.09 21.82 13.74 25.82 25.96z"/><path d="M295.669 177.55c-.81.59-1.63 1.17-2.46 1.73-15.19 10.31-32.89 15.88-51.3 16.14-.47.02-.94.02-1.41.02s-.94 0-1.41-.02a93.61 93.61 0 0 1-31.535-5.927l.005.003a93.351 93.351 0 0 0 22.074 9.683c.221.064.441.133.663.195.713.203 1.43.391 2.149.576.34.087.68.177 1.022.261a99.41 99.41 0 0 0 5.031 1.089 113.038 113.038 0 0 0 3.136.536c.533.082 1.068.155 1.604.228.526.071 1.052.143 1.58.206.597.071 1.197.13 1.796.189.476.047.951.098 1.429.138.697.058 1.397.101 2.097.144.388.023.774.055 1.163.074 1.093.053 2.188.09 3.287.106.47.02.94.02 1.41.02s.94 0 1.41-.02c18.41-.26 36.11-5.83 51.3-16.14.83-.56 1.65-1.14 2.46-1.73a40.558 40.558 0 0 0-7.773-13.771 94.738 94.738 0 0 1-7.728 6.27z"/><path d="M285.359 159.07l-.01.02-27.94 43.83c-.47.02-.94.02-1.41.02s-.94 0-1.41-.02l-27.94-43.83-.01-.02c.45-.15.9-.29 1.35-.42.07-.03.15-.05.22-.07.86-.25 1.74-.47 2.62-.66.16-.04.31-.07.47-.1.03-.01.06-.01.08-.02.26-.06.52-.1.78-.15.39-.08.78-.15 1.18-.21l1.07-.15.24-.03c.53-.06 1.05-.12 1.59-.16.52-.04 1.04-.08 1.57-.1.11 0 .21-.01.32-.01.49-.021.98-.03 1.47-.03h32.8c.49 0 .98.01 1.47.03.11 0 .21.01.32.01.53.02 1.05.06 1.57.1.54.04 1.06.1 1.59.16l.24.03 1.07.15c.4.06.79.13 1.18.21.26.05.52.09.78.15.02.01.05.01.08.02.16.03.31.06.47.1.88.19 1.76.41 2.62.66.07.02.15.04.22.07.45.13.9.27 1.35.42z"/><path d="M249.537 194.995l5.052 7.925c.47.02.94.02 1.41.02s.94 0 1.41-.02l6.68-10.479a93.648 93.648 0 0 1-14.552 2.554zM281.013 50.334l.001-.005c-.071-.061-.145-.118-.217-.178a39.132 39.132 0 0 0-.894-.734l-.416-.325a39.929 39.929 0 0 0-1.336-.989 53.37 53.37 0 0 0-1.367-.924c-.237-.152-.476-.3-.716-.447-.227-.139-.454-.279-.684-.414-.203-.119-.409-.233-.614-.348-.27-.152-.54-.304-.815-.45-.141-.075-.285-.145-.427-.218a38.215 38.215 0 0 0-17.529-4.238c-21.233 0-38.445 17.213-38.445 38.445v3.554a45.711 45.711 0 0 0 18.502 3.895c13.524 0 25.674-5.856 34.073-15.163 5.311 8.183 14.121 13.886 24.316 14.971v-7.257c-.001-11.675-5.213-22.127-13.432-29.175zm152.944 211.218H263.499v-13.968c0-4.143-3.357-7.5-7.5-7.5s-7.5 3.357-7.5 7.5v13.968H78.041a7.499 7.499 0 0 0-7.5 7.5v34.588c0 4.143 3.357 7.5 7.5 7.5s7.5-3.357 7.5-7.5v-27.088h162.958v27.088c0 4.143 3.357 7.5 7.5 7.5s7.5-3.357 7.5-7.5v-27.088h162.958v27.088c0 4.143 3.357 7.5 7.5 7.5s7.5-3.357 7.5-7.5v-34.588c0-4.143-3.357-7.5-7.5-7.5zM433.957 426.599c-19.895 0-36.023-16.128-36.023-36.023v-23.445c0-18.444 14.952-33.396 33.396-33.396h5.255c18.444 0 33.396 14.952 33.396 33.396v23.445c-.002 19.895-16.129 36.023-36.024 36.023zM448.263 447.254H419.65c-19.656 0-35.59 15.934-35.59 35.59v26.379a2.776 2.776 0 0 0 2.776 2.776h94.242a2.776 2.776 0 0 0 2.776-2.776v-26.379c0-19.655-15.935-35.59-35.591-35.59z"/><path d="M436.584 333.736h-5.254c-18.444 0-33.396 14.952-33.396 33.396v6.387c16.626 4.924 42.477-3.327 49.729-13.755 2.613 8.051 13.609 13.191 22.317 15.536v-8.168c-.001-18.445-14.952-33.396-33.396-33.396zM255.999 426.599c-19.895 0-36.023-16.128-36.023-36.023v-23.445c0-18.444 14.952-33.396 33.396-33.396h5.255c18.444 0 33.396 14.952 33.396 33.396v23.445c-.001 19.895-16.129 36.023-36.024 36.023zM270.306 447.254h-28.613c-19.656 0-35.59 15.934-35.59 35.59v26.379a2.776 2.776 0 0 0 2.776 2.776h94.242a2.776 2.776 0 0 0 2.776-2.776v-26.379c-.001-19.655-15.935-35.59-35.591-35.59z"/><path d="M258.626 333.736h-5.254c-18.444 0-33.396 14.952-33.396 33.396v6.387c16.626 4.924 42.477-3.327 49.729-13.755 2.613 8.051 13.609 13.191 22.317 15.536v-8.168c0-18.445-14.952-33.396-33.396-33.396zM78.041 426.599c-19.895 0-36.023-16.128-36.023-36.023v-23.445c0-18.444 14.952-33.396 33.396-33.396h5.255c18.444 0 33.396 14.952 33.396 33.396v23.445c-.001 19.895-16.129 36.023-36.024 36.023zM92.348 447.254H63.735c-19.656 0-35.59 15.934-35.59 35.59v26.379a2.776 2.776 0 0 0 2.776 2.776h94.242a2.776 2.776 0 0 0 2.776-2.776v-26.379c-.001-19.655-15.935-35.59-35.591-35.59z"/><path d="M80.669 333.736h-5.254c-18.444 0-33.396 14.952-33.396 33.396v6.387c16.626 4.924 42.477-3.327 49.729-13.755 2.613 8.051 13.609 13.191 22.317 15.536v-8.168c-.001-18.445-14.952-33.396-33.396-33.396z"/></symbol><symbol viewBox="0 0 512.003 512.003" id="networking" xmlns="http://www.w3.org/2000/svg"><path d="M102.298 289.342H59.515c-3.793 0-7.493-1.603-11.061-.849-24.082 5.091-42.155 26.467-42.155 52.065v51.455a4.15 4.15 0 0 0 4.151 4.151h140.913a4.15 4.15 0 0 0 4.151-4.151v-51.455c0-25.598-18.074-46.975-42.156-52.065-3.568-.754-7.268.849-11.06.849zM153.545 215.592v-39.659c0-40.117-32.521-72.639-72.639-72.639-40.117 0-72.639 32.521-72.639 72.639v39.659c0 10.679-3.437 23.721-7.78 31.962-1.459 2.769.536 6.091 3.666 6.091h153.506c3.13 0 5.125-3.322 3.666-6.091-4.343-8.241-7.78-21.283-7.78-31.962z"/><path d="M134.769 195.807v11.315c0 29.745-24.118 53.855-53.863 53.855s-53.863-24.11-53.863-53.855v-35.061c0-1.891.109-3.766.318-5.603h6.882a17.488 17.488 0 0 1 16.399 11.424 27.472 27.472 0 0 0 10.052 13.005 27.45 27.45 0 0 0 15.686 4.921h58.389v-.001zM113.358 288.501a53.373 53.373 0 0 0-11.059-1.158H59.515c-3.793 0-7.491.404-11.059 1.158 2.559 19.414 15.177 35.651 32.451 43.313 17.274-7.663 29.892-23.9 32.451-43.313z"/><circle cx="485.201" cy="220.721" r="26.802"/><path d="M431.336 260.981c-29.747 0-53.862-24.115-53.862-53.862v-35.056c0-27.578 22.356-49.934 49.934-49.934h7.857c27.578 0 49.934 22.356 49.934 49.934v35.056c-.001 29.747-24.116 53.862-53.863 53.862zM452.727 287.342h-42.783c-29.39 0-53.216 23.825-53.216 53.216v51.455a4.15 4.15 0 0 0 4.151 4.151h140.913a4.15 4.15 0 0 0 4.151-4.151v-51.455c0-29.39-23.825-53.216-53.216-53.216z"/><path d="M485.199 172.065v35.216c-77.043-6.795-83.551-48.35-83.551-48.35v26.577h-24.175v-13.444c0-27.58 22.354-49.934 49.934-49.934h7.857c27.58 0 49.935 22.355 49.935 49.935zM463.787 288.501a53.373 53.373 0 0 0-11.059-1.158h-42.784c-3.793 0-7.491.404-11.059 1.158 2.559 19.414 15.177 35.651 32.451 43.313 17.274-7.663 29.892-23.9 32.451-43.313zM358.186 358.237c-25.041-91.374-24.486-97.661-6.901-182.944a99.896 99.896 0 0 0 2.403-21.811c0-54.991-44.579-99.569-99.569-99.569s-99.569 44.579-99.569 99.569c0 7.493.834 14.791 2.403 21.811 17.586 85.282 18.141 91.57-6.901 182.944a108.498 108.498 0 0 0-4.413 30.699c0 59.912 48.568 45.445 108.48 45.445s108.48 14.466 108.48-45.445c0-10.664-1.546-20.964-4.413-30.699z"/><path d="M358.186 358.237c-25.041-91.374-24.486-97.661-6.901-182.943a99.896 99.896 0 0 0 2.403-21.811c0-54.991-44.579-99.569-99.569-99.569-2.573 0-5.123.098-7.647.289 44.646 3.905 79.817 46.862 79.817 99.28 0 7.493-.724 14.791-2.086 21.811-15.27 85.283-15.751 91.569 5.992 182.943 2.49 9.735 3.832 20.036 3.832 30.699 0 36.149-15.357 45.216-38.963 46.725 39.614 1.366 67.536-1.302 67.536-46.725a108.534 108.534 0 0 0-4.414-30.699z"/><path d="M285.223 301.861h-62.208c-11.892 0-23.157.682-33.223 5.475-26.108 12.431-44.153 39.058-44.153 69.9v70.475c0 5.731 4.646 10.378 10.378 10.378h196.204c5.731 0 10.378-4.646 10.378-10.378v-70.474c0-31.054-18.294-57.835-44.692-70.155-9.929-4.633-21.005-5.221-32.684-5.221z"/><path d="M285.223 301.861h-15.69c16.201 0 31.092 4.32 42.836 14.891 15.752 14.178 25.843 36.004 25.843 60.485v70.475c0 5.731-4.124 10.378-9.211 10.378h23.221c5.731 0 10.378-4.647 10.378-10.378v-70.475c0-31.054-18.294-57.835-44.692-70.155-9.93-4.633-21.006-5.221-32.685-5.221zM326.569 204.894c-4.05 36.414-34.945 64.739-72.45 64.739-40.264 0-72.911-32.648-72.911-72.911v-47.45c0-17.635 6.756-33.697 17.824-45.729 16.617 38.374 59.892 83.81 127.537 101.351z"/><path d="M299.474 195.908c.143 2.85.035 5.835-.386 8.986-3.06 33.93-25.025 60.826-52.613 64.339 2.513.261 5.062.4 7.644.4 37.505 0 68.4-28.325 72.45-64.739a215.403 215.403 0 0 1-27.095-8.986zM254.119 423.079l63.587-116.068a77.055 77.055 0 0 0-32.484-7.15h-62.207a77.047 77.047 0 0 0-32.483 7.15l63.587 116.068z"/><path d="M265.421 328.344c11.329-4.499 19.343-15.552 19.343-28.484h-61.289c0 12.931 8.014 23.984 19.343 28.484l-10.124 55.625 21.426 39.11 21.426-39.11-10.125-55.625z"/></symbol></svg>