<svg width="6" height="6" viewBox="0 0 6 6" fill="none" xmlns="http://www.w3.org/2000/svg">
<path d="M1.35772 5.49419C1.86116 5.82405 2.44999 5.99984 3.05196 6C3.42934 5.98802 3.80168 5.90987 4.15201 5.76912C4.51378 5.61284 4.84235 5.38894 5.12007 5.10945C5.40396 4.82689 5.62837 4.49038 5.78006 4.11975C5.91824 3.76924 5.99271 3.3969 6 3.02024C6.00066 2.42323 5.82445 1.83939 5.49357 1.34234C5.16269 0.845302 4.69196 0.457318 4.14076 0.227323C3.58751 -0.00198999 2.97798 -0.0594577 2.39159 0.062405C1.81011 0.167961 1.27149 0.43906 0.84041 0.84314C0.428826 1.28192 0.156951 1.83304 0.059291 2.42654C-0.059885 3.01371 0.00149157 3.62319 0.235352 4.17485C0.47429 4.71364 0.864 5.17189 1.35753 5.49438L1.35772 5.49419Z" fill="#F8DF1C"/>
</svg>
