<svg viewBox="0 0 1920 157" fill="none" xmlns="http://www.w3.org/2000/svg"><g opacity=".8" fill-rule="evenodd" clip-rule="evenodd" fill="#fff" fill-opacity=".08"><path d="M0 19.532c164.889 0 359.111 40.058 519.111 54.038C679.111 87.55 800 94.32 960 80.34c160-13.981 320-56.152 480-73.628 160-17.475 320 3.495 400 13.98l80 10.486V157H0V19.532z"/><path d="M0 106.641h107.2c105.6 0 320 0 532.8 4.197 212.8 4.197 427.2 12.59 640 12.59s427.2-8.393 532.8-12.59l107.2-4.197V157H0v-50.359z"/><path d="m0 73.098 64-4.66c64-4.662 192-13.984 320-37.29C512 7.842 640-3.638 768 1.023c128 4.661 256 25.463 384 53.43 128 27.968 256 37.29 384 27.968 128-9.323 256-37.29 320-51.273l64-13.984V157H0V73.098z"/></g></svg>